<svg width="80" height="80" viewBox="0 0 80 80" fill="none" xmlns="http://www.w3.org/2000/svg">
<g clip-path="url(#clip0_123_683)">
<path d="M0 69.6848C0 75.3823 4.61829 80 10.3152 80H69.6848C75.3823 80 80 75.3817 80 69.6848V10.3152C80 4.61766 75.3817 0 69.6848 0H10.3152C4.61766 0 0 4.61829 0 10.3152V69.6848Z" fill="#563D7C"/>
<path d="M33.1743 35.3869V24.0577H43.1467C44.0964 24.0577 45.0123 24.1368 45.8942 24.2951C46.7761 24.4534 47.5563 24.7361 48.2347 25.1431C48.9131 25.5502 49.4558 26.1155 49.8628 26.8391C50.2699 27.5627 50.4734 28.4899 50.4734 29.6205C50.4734 31.6557 49.8628 33.1256 48.6417 34.0301C47.4206 34.9346 45.8603 35.3869 43.9608 35.3869H33.1743ZM22.5234 15.7812V64.2188H45.996C48.1668 64.2188 50.2811 63.9474 52.339 63.4047C54.3968 62.862 56.2284 62.0253 57.834 60.8946C59.4395 59.7639 60.7171 58.3054 61.6669 56.519C62.6167 54.7325 63.0915 52.6182 63.0915 50.1759C63.0915 47.1458 62.3566 44.5566 60.8868 42.4083C59.4169 40.26 57.1895 38.7563 54.2045 37.897C56.3754 36.8568 58.0149 35.5226 59.1229 33.8944C60.231 32.2663 60.785 30.2311 60.785 27.7889C60.785 25.5275 60.4119 23.628 59.6656 22.0903C58.9194 20.5526 57.8679 19.3202 56.5111 18.3931C55.1543 17.4659 53.5262 16.7988 51.6266 16.3918C49.7271 15.9848 47.6241 15.7812 45.3176 15.7812H22.5234ZM33.1743 55.9423V42.6457H44.7748C47.0814 42.6457 48.9357 43.1772 50.3377 44.24C51.7397 45.3028 52.4407 47.0779 52.4407 49.5654C52.4407 50.8317 52.2259 51.8719 51.7962 52.686C51.3666 53.5001 50.79 54.1446 50.0663 54.6194C49.3427 55.0943 48.506 55.4335 47.5563 55.637C46.6065 55.8406 45.6115 55.9423 44.5713 55.9423H33.1743Z" fill="white"/>
</g>
<defs>
<clipPath id="clip0_123_683">
<rect width="80" height="80" fill="white"/>
</clipPath>
</defs>
</svg>
