<svg width="60" height="54" viewBox="0 0 60 54" fill="none" xmlns="http://www.w3.org/2000/svg">
<path d="M29.9997 43.0417C33.6455 43.0417 36.745 41.7651 39.298 39.2121C41.8511 36.659 43.1266 33.5606 43.1247 29.9167C43.1247 26.2708 41.8482 23.1714 39.2951 20.6183C36.742 18.0653 33.6436 16.7897 29.9997 16.7917C26.3538 16.7917 23.2544 18.0682 20.7013 20.6212C18.1483 23.1743 16.8727 26.2728 16.8747 29.9167C16.8747 33.5625 18.1512 36.6619 20.7043 39.215C23.2573 41.7681 26.3558 43.0436 29.9997 43.0417ZM29.9997 37.2083C27.958 37.2083 26.2323 36.5035 24.8226 35.0937C23.4129 33.684 22.708 31.9583 22.708 29.9167C22.708 27.875 23.4129 26.1493 24.8226 24.7396C26.2323 23.3299 27.958 22.625 29.9997 22.625C32.0413 22.625 33.767 23.3299 35.1768 24.7396C36.5865 26.1493 37.2913 27.875 37.2913 29.9167C37.2913 31.9583 36.5865 33.684 35.1768 35.0937C33.767 36.5035 32.0413 37.2083 29.9997 37.2083ZM6.66635 53.25C5.06218 53.25 3.68843 52.6783 2.5451 51.535C1.40176 50.3917 0.831068 49.0189 0.833013 47.4167V12.4167C0.833013 10.8125 1.40468 9.43875 2.54801 8.29542C3.69135 7.15208 5.06412 6.58139 6.66635 6.58333H15.8538L21.2497 0.75H38.7497L44.1455 6.58333H53.333C54.9372 6.58333 56.3109 7.155 57.4543 8.29833C58.5976 9.44167 59.1683 10.8144 59.1663 12.4167V47.4167C59.1663 49.0208 58.5947 50.3946 57.4513 51.5379C56.308 52.6812 54.9352 53.2519 53.333 53.25H6.66635ZM53.333 47.4167V12.4167H41.5205L36.1976 6.58333H23.8018L18.4788 12.4167H6.66635V47.4167H53.333Z" fill="#023047"/>
</svg>
