<svg width="80" height="80" viewBox="0 0 80 80" fill="none" xmlns="http://www.w3.org/2000/svg">
<path d="M9.76385 75.6068C8.39439 75.6068 7.99613 74.8096 7.99613 73.6148C7.99613 73.2166 8.04631 72.7675 8.10792 72.2943C8.40773 70.228 9.1401 69.046 10.9078 69.046C12.1032 69.046 12.6863 69.5808 12.6863 70.552V71.0252H13.8722C13.8856 71.0252 13.8856 70.5895 13.8856 70.4904C13.8856 69.0714 13.0262 67.7254 10.9097 67.7254C8.03361 67.7254 6.85089 69.288 6.41515 72.3508C6.35291 72.7618 6.31543 73.1454 6.31543 73.5551C6.31543 75.3603 7.02557 77.0023 9.56504 77.0023C11.4947 77.0023 12.6406 76.0616 13.3126 74.9036L12.1795 74.1408C11.4452 75.2987 10.648 75.6068 9.76385 75.6068ZM17.5455 69.9047C15.2417 69.9047 14.2464 71.0868 13.9103 73.4395C13.8722 73.7146 13.8475 74.0004 13.8475 74.2615C13.8475 75.7802 14.557 76.9883 16.5235 76.9883C18.8273 76.9883 19.836 75.7554 20.172 73.4395C20.2095 73.141 20.2343 72.8672 20.2343 72.5935C20.2349 71.05 19.5006 69.9047 17.5455 69.9047ZM18.504 73.4402C18.255 75.1463 17.7202 75.669 16.7109 75.669C15.9023 75.669 15.504 75.333 15.504 74.3243C15.504 74.0753 15.5294 73.7768 15.579 73.4402C15.828 71.7474 16.326 71.2246 17.3467 71.2246C18.1686 71.2246 18.579 71.5606 18.579 72.5814C18.579 72.8304 18.5536 73.1169 18.504 73.4402ZM26.0252 67.8493L25.6397 70.1347C25.6149 70.3335 25.6276 70.2674 25.7026 70.4542C25.3418 70.1804 24.6939 69.9994 24.2582 69.9994C22.1913 69.9994 21.034 70.935 20.6605 73.5494C20.6109 73.8607 20.5982 74.123 20.5982 74.384C20.5982 76.2896 21.7187 76.9997 23.2247 76.9997C23.8605 76.9997 24.4824 77.0131 24.9677 76.6028L25.0915 77.377H26.2869L27.6812 67.8493H26.0252ZM24.8425 75.3076C24.2829 75.643 23.7354 75.7186 23.3994 75.7186C22.4904 75.7186 22.2414 75.2454 22.2414 74.4863C22.2414 74.1998 22.2789 73.8645 22.3291 73.5024C22.6149 71.5232 23.2501 71.1738 24.072 71.1738C24.6069 71.1738 25.0172 71.2615 25.404 71.4736L24.8425 75.3076ZM31.317 69.9047C29.0379 69.9047 27.9683 70.9871 27.6069 73.4395C27.5687 73.7387 27.544 74.0252 27.544 74.2989C27.544 75.9796 28.4034 76.9883 30.295 76.9883C31.7641 76.9883 32.8605 76.3779 33.4455 75.2574L32.1878 74.7467C31.827 75.2943 31.3417 75.6678 30.4823 75.6678C29.5613 75.6678 29.1878 75.42 29.1878 74.5981C29.1878 74.4361 29.2005 74.2005 29.2253 74.2005H33.7192C33.7821 73.5653 33.8558 73.1162 33.8558 72.744C33.8558 71.4997 33.3832 69.9047 31.317 69.9047ZM32.1757 72.9307H29.4368C29.7112 72.2956 30.1711 71.3123 31.1175 71.3123C31.8518 71.3123 32.2132 71.7417 32.2132 72.476C32.2126 72.6004 32.2012 72.9307 32.1757 72.9307ZM38.647 69.7548L38.7963 68.4844H35.285L35.1363 69.7548H36.0574L35.062 76.1067H34.1397L33.9911 77.377H37.5018L37.6517 76.1067H36.73L37.7254 69.7548H38.647ZM45.7814 71.6604L46.2299 70.39H45.0224L44.1515 70.5698C43.6656 70.2592 43.0057 70.026 42.3838 70.026C40.6027 70.026 39.0847 70.8861 39.0847 72.8412C39.0847 73.3893 39.2835 73.8321 39.5198 74.1312C39.1469 74.3301 38.823 74.6629 38.823 75.112C38.823 75.3108 38.8973 75.5147 39.0472 75.7008C38.2996 76.1499 37.8403 76.8937 37.8403 77.7645C37.8403 79.4458 39.5953 79.8047 40.94 79.8047C42.6328 79.8047 44.6502 79.4179 44.6502 77.264C44.6502 76.5297 44.1896 75.9561 42.8577 75.7071L40.4548 75.2581C40.181 75.2079 40.1187 75.1209 40.1187 74.9964C40.1187 74.8096 40.2318 74.7105 40.4179 74.7105L40.5799 74.7353C40.9038 74.8096 41.2773 74.8477 41.6629 74.8477C43.3938 74.8477 44.9373 74.1001 44.9373 72.1584C44.9373 71.884 44.8877 71.6985 44.7632 71.3993C44.9747 71.499 45.2491 71.661 45.3603 71.661H45.7814V71.6604ZM42.3584 76.8136C42.831 76.9013 42.9923 77.0753 42.9923 77.3866C42.9923 78.3952 41.9093 78.5197 41.1255 78.5197C39.9301 78.5197 39.4823 78.2339 39.4823 77.5981C39.4823 77.0378 39.6436 76.7768 40.0177 76.3779L42.3584 76.8136ZM41.8471 73.5526C41.1249 73.5526 40.7266 73.2915 40.7266 72.6684C40.7266 71.7474 41.2621 71.2119 42.1958 71.2119C42.9428 71.2119 43.3042 71.5232 43.3042 72.1323C43.3042 73.054 42.7808 73.5526 41.8471 73.5526ZM50.2042 69.9047C49.5068 69.9047 48.8849 70.2471 48.1126 70.8562L48.0008 70.39H46.6307L45.6722 77.377H47.3281L48.0503 72.0783C48.5362 71.7798 49.1333 71.346 49.644 71.346C50.2658 71.346 50.4907 71.6464 50.4907 72.2187C50.4907 72.3559 50.4773 72.7618 50.4526 72.911L49.8434 77.377H51.4994L52.1085 72.8748C52.1339 72.664 52.1587 72.3172 52.1587 72.1183C52.1593 70.9344 51.5984 69.9047 50.2042 69.9047ZM55.3041 75.6265L55.3168 75.4556L56.0384 70.39H53.2868L53.1134 71.6604H54.3202C54.2205 71.6604 54.1582 71.7715 54.1462 71.8719L53.6482 75.2454C53.6234 75.408 53.6114 75.7459 53.6114 75.8818C53.6114 76.7533 54.0839 77.377 55.0545 77.377H55.9012L56.0879 76.1067H55.5531C55.3657 76.1067 55.3041 75.7757 55.3041 75.6265ZM56.3744 67.8493H54.756C54.6562 67.8493 54.6562 67.4828 54.6442 67.6073L54.4193 69.3972C54.4066 69.5096 54.4066 69.7548 54.5063 69.7548H56.1254C56.2251 69.7548 56.2251 69.3197 56.2372 69.2066L56.4621 67.8251C56.4748 67.7006 56.4748 67.8493 56.3744 67.8493ZM59.7511 75.669C59.3407 75.669 59.1413 75.4944 59.1413 75.1215L59.154 75.0961L59.6767 71.6604H61.569L62.1413 70.39H59.8508L60.2363 67.5946L58.494 68.1516L58.1821 70.39H57.1741L57.0001 71.6604H58.1701C58.0583 72.2956 57.9459 71.8833 57.9338 72.0085L57.4854 75.0211C57.4606 75.1583 57.4606 75.2581 57.4606 75.3819C57.4606 76.5646 58.3321 77.0074 59.3788 77.0074C60.3494 77.0074 61.1339 76.7241 61.7443 76.2127L60.9719 75.2625C60.5851 75.4988 60.324 75.669 59.7511 75.669ZM65.8266 69.9047C63.5482 69.9047 62.4779 70.9871 62.1165 73.4395C62.079 73.7387 62.0542 74.0252 62.0542 74.2989C62.0542 75.9796 62.913 76.9883 64.8052 76.9883C66.2744 76.9883 67.3707 76.3779 67.9551 75.2574L66.6981 74.7467C66.3373 75.2943 65.8514 75.6678 64.992 75.6678C64.0716 75.6678 63.6975 75.42 63.6975 74.5981C63.6975 74.4361 63.7108 74.2005 63.7356 74.2005H68.2295C68.2918 73.5653 68.3667 73.1162 68.3667 72.744C68.3667 71.4997 67.8935 69.9047 65.8266 69.9047ZM66.686 72.9307H63.9471C64.2209 72.2956 64.6807 71.3123 65.6278 71.3123C66.3621 71.3123 66.7235 71.7417 66.7235 72.476C66.7229 72.6004 66.7108 72.9307 66.686 72.9307ZM72.9483 69.9047C72.3506 69.9047 71.7904 70.2471 71.2301 70.7813L71.1304 70.39H69.7616L68.8024 77.377H70.4711L71.2054 71.9665C71.6411 71.7055 72.1391 71.4825 72.6123 71.4825C72.9115 71.4825 73.1973 71.4349 73.4711 71.4724L73.6839 70.0286C73.4336 69.979 73.1846 69.9047 72.9483 69.9047ZM30.6684 62.8446C26.8999 61.216 23.3733 57.0759 23.3651 52.8398C23.3549 48.2214 26.2819 44.3004 29.9221 41.7234C29.4845 43.3768 29.2456 44.8892 30.3299 46.3679C31.3379 47.7431 33.1031 48.4113 34.7698 48.0486C38.6648 47.1962 38.8433 42.9144 36.5344 40.42C34.2515 37.9498 32.043 35.1594 32.9119 31.577C33.347 29.7813 34.4497 28.0993 35.8465 26.8969C34.773 29.7184 37.8238 32.5012 39.8342 33.8872C43.3213 36.292 47.1471 38.1092 50.3535 40.9282C53.7263 43.8907 56.2169 47.8968 55.7138 52.5426C55.1688 57.5783 51.1672 61.0807 46.6789 62.8491C56.1635 60.7555 65.9638 53.3943 66.1645 42.875C66.3309 34.2213 60.3945 27.5613 53.0403 23.7483L52.656 23.5387C52.858 24.0284 52.9241 24.4451 52.9165 24.818C52.9825 24.5429 53.027 24.2603 53.0397 23.9687C53.0365 24.3314 52.9901 24.6738 52.905 24.9952L52.9165 24.818C52.8059 25.2848 52.6205 25.7187 52.3721 26.1157L52.4801 25.9994C51.0128 28.4328 47.041 28.9613 45.0789 26.4415C41.9246 22.3884 45.145 18.0183 45.5953 13.7264C46.1594 8.34697 42.7859 3.12511 38.6032 0C40.907 3.72663 37.8721 8.65695 35.4438 11.413C33.0891 14.0852 30.2257 16.316 27.6265 18.7437C24.8343 21.3511 22.15 24.0977 19.855 27.158C15.2652 33.2831 12.4551 40.9866 14.5201 48.6285C16.5838 56.2647 23.1987 61.1258 30.6684 62.8446Z" fill="#EE4323"/>
</svg>
