<svg width="60" height="60" viewBox="0 0 60 60" fill="none" xmlns="http://www.w3.org/2000/svg">
<path d="M17.5163 42.9967L22.6526 41.515L53.578 10.2192C53.8219 9.96922 53.9578 9.63333 53.9561 9.28406C53.9545 8.9348 53.8155 8.60019 53.5693 8.35252L51.7172 6.48002C51.5975 6.35704 51.4545 6.25914 51.2966 6.19202C51.1387 6.1249 50.9689 6.08991 50.7973 6.0891C50.6257 6.08828 50.4557 6.12166 50.2971 6.18728C50.1386 6.25289 49.9947 6.34944 49.8738 6.47127L19.0301 37.6854L17.5134 42.9938L17.5163 42.9967ZM55.3834 2.77002L57.2355 4.64544C59.7905 7.23252 59.8138 11.4063 57.2822 13.9671L25.4147 46.2196L14.4363 49.3813C13.7661 49.5689 13.0488 49.4829 12.4418 49.1423C11.8349 48.8016 11.3878 48.2341 11.1988 47.5642C11.0582 47.0826 11.0562 46.5711 11.193 46.0884L14.3868 34.8884L46.1697 2.72044C46.774 2.1119 47.4935 1.62978 48.2861 1.30221C49.0788 0.974645 49.9287 0.808178 50.7863 0.812522C51.644 0.816866 52.4922 0.991934 53.2814 1.32751C54.0707 1.6631 54.7853 2.15539 55.3834 2.77002ZM21.7863 6.13294C23.233 6.13294 24.4055 7.32002 24.4055 8.78419C24.4078 9.1303 24.3419 9.47348 24.2115 9.79409C24.081 10.1147 23.8887 10.4065 23.6455 10.6527C23.4022 10.8989 23.1128 11.0948 22.7938 11.2291C22.4748 11.3634 22.1325 11.4335 21.7863 11.4354H11.3097C8.41634 11.4354 6.07134 13.8096 6.07134 16.735V48.5442C6.07134 51.4725 8.41634 53.8467 11.3097 53.8467H42.7397C45.633 53.8467 47.9809 51.4725 47.9809 48.5442V37.9421C47.9809 36.4779 49.1534 35.2909 50.6001 35.2909C52.0468 35.2909 53.2193 36.4779 53.2193 37.945V48.5442C53.2193 54.4009 48.5263 59.1492 42.7397 59.1492H11.3097C5.52301 59.1492 0.833008 54.4009 0.833008 48.5442V16.735C0.833008 10.8813 5.52301 6.13294 11.3097 6.13294H21.7863Z" fill="#023047"/>
</svg>
