<svg width="30" height="24" viewBox="0 0 30 24" fill="none" xmlns="http://www.w3.org/2000/svg">
<g clip-path="url(#clip0_78_353)">
<path d="M2.04545 23.25H6.81818V11.6591L0 6.54546V21.2045C0 22.3364 0.917045 23.25 2.04545 23.25Z" fill="#4285F4"/>
<path d="M23.1816 23.25H27.9544C29.0862 23.25 29.9998 22.333 29.9998 21.2045V6.54546L23.1816 11.6591" fill="#34A853"/>
<path d="M23.1816 2.79546V11.6591L29.9998 6.54546V3.81819C29.9998 1.28864 27.1123 -0.153405 25.0907 1.36364" fill="#FBBC04"/>
<path d="M6.81836 11.6591V2.79546L15.0002 8.93182L23.182 2.79546V11.6591L15.0002 17.7955" fill="#EA4335"/>
<path d="M0 3.81819V6.54546L6.81818 11.6591V2.79546L4.90909 1.36364C2.88409 -0.153405 0 1.28864 0 3.81819Z" fill="#C5221F"/>
</g>
<defs>
<clipPath id="clip0_78_353">
<rect width="30" height="22.5" fill="white" transform="translate(0 0.75)"/>
</clipPath>
</defs>
</svg>
