<svg width="39" height="66" viewBox="0 0 39 66" fill="none" xmlns="http://www.w3.org/2000/svg">
<path d="M31.2085 0.916687H7.87516C5.94129 0.916687 4.08663 1.68491 2.71918 3.05237C1.35172 4.41982 0.583496 6.27448 0.583496 8.20835V57.7917C0.583496 59.7256 1.35172 61.5802 2.71918 62.9477C4.08663 64.3151 5.94129 65.0834 7.87516 65.0834H31.2085C33.1424 65.0834 34.997 64.3151 36.3645 62.9477C37.7319 61.5802 38.5002 59.7256 38.5002 57.7917V8.20835C38.5002 6.27448 37.7319 4.41982 36.3645 3.05237C34.997 1.68491 33.1424 0.916687 31.2085 0.916687ZM19.5418 62.1667C17.121 62.1667 15.1668 60.2125 15.1668 57.7917C15.1668 55.3709 17.121 53.4167 19.5418 53.4167C21.9627 53.4167 23.9168 55.3709 23.9168 57.7917C23.9168 60.2125 21.9627 62.1667 19.5418 62.1667ZM32.6668 50.5H6.41683V9.66669H32.6668V50.5Z" fill="#023047"/>
</svg>
