<svg width="80" height="80" viewBox="0 0 80 80" fill="none" xmlns="http://www.w3.org/2000/svg">
<g clip-path="url(#clip0_123_675)">
<path d="M0 0H80V80H0V0Z" fill="#F7DF1E"/>
<path d="M21.0348 66.8539L27.157 63.1489C28.338 65.243 29.4124 67.0148 31.9896 67.0148C34.4599 67.0148 36.0174 66.0484 36.0174 62.2897V36.7278H43.5354V62.396C43.5354 70.1826 38.971 73.7269 32.3119 73.7269C26.2978 73.7269 22.8067 70.6121 21.0347 66.8532" fill="black"/>
<path d="M47.6191 66.0482L53.7405 62.5039C55.352 65.1356 57.4463 67.0686 61.1515 67.0686C64.2665 67.0686 66.2529 65.5112 66.2529 63.3631C66.2529 60.7855 64.2124 59.8725 60.7755 58.3693L58.8965 57.5632C53.4723 55.2545 49.8743 52.3547 49.8743 46.2327C49.8743 40.5941 54.1703 36.2979 60.8831 36.2979C65.6626 36.2979 69.0994 37.9627 71.5694 42.3126L65.7159 46.0714C64.427 43.7625 63.0312 42.8497 60.8833 42.8497C58.6815 42.8497 57.2852 44.2459 57.2852 46.0714C57.2852 48.3269 58.6815 49.2401 61.9032 50.6364L63.7826 51.4418C70.173 54.1808 73.7711 56.9729 73.7711 63.2557C73.7711 70.0224 68.4548 73.7274 61.3127 73.7274C54.3317 73.7274 49.8205 70.3982 47.6191 66.0482Z" fill="black"/>
</g>
<defs>
<clipPath id="clip0_123_675">
<rect width="80" height="80" fill="white"/>
</clipPath>
</defs>
</svg>
