<svg width="66" height="54" viewBox="0 0 66 54" fill="none" xmlns="http://www.w3.org/2000/svg">
<path d="M3.83318 53.25C3.00679 53.25 2.3136 52.97 1.7536 52.41C1.1936 51.85 0.91457 51.1578 0.916514 50.3333C0.916514 49.507 1.19651 48.8138 1.75651 48.2538C2.31651 47.6938 3.00874 47.4147 3.83318 47.4167H62.1665C62.9929 47.4167 63.6861 47.6967 64.2461 48.2567C64.8061 48.8167 65.0851 49.5089 65.0832 50.3333C65.0832 51.1597 64.8032 51.8529 64.2432 52.4129C63.6832 52.9729 62.991 53.2519 62.1665 53.25H3.83318ZM9.66651 44.5C8.06235 44.5 6.6886 43.9283 5.54526 42.785C4.40193 41.6417 3.83124 40.2689 3.83318 38.6667V6.58334C3.83318 4.97917 4.40485 3.60542 5.54818 2.46209C6.69151 1.31875 8.06429 0.748061 9.66651 0.750005H56.3332C57.9373 0.750005 59.3111 1.32167 60.4544 2.465C61.5978 3.60834 62.1685 4.98112 62.1665 6.58334V38.6667C62.1665 40.2708 61.5948 41.6446 60.4515 42.7879C59.3082 43.9313 57.9354 44.5019 56.3332 44.5H9.66651ZM9.66651 38.6667H56.3332V6.58334H9.66651V38.6667Z" fill="#023047"/>
</svg>
