<svg width="80" height="80" viewBox="0 0 80 80" fill="none" xmlns="http://www.w3.org/2000/svg">
<path d="M78.7439 18.0665C78.7727 18.173 78.7877 18.2828 78.7877 18.3931V35.5349C78.7877 35.9827 78.5481 36.3964 78.1596 36.6192L63.7722 44.9026V61.3211C63.7722 61.7679 63.5347 62.1804 63.1472 62.4054L33.1146 79.6941C33.0459 79.7331 32.9709 79.7581 32.8959 79.7847C32.8678 79.7941 32.8412 79.8112 32.8115 79.8191C32.6016 79.8743 32.3809 79.8743 32.171 79.8191C32.1366 79.8097 32.1054 79.7909 32.0725 79.7784C32.0038 79.7534 31.9319 79.7316 31.8663 79.6941L1.83997 62.4054C1.45172 62.1823 1.21191 61.7689 1.21191 61.3211V9.89557C1.21191 9.78309 1.22754 9.67372 1.25566 9.56749C1.26503 9.53155 1.28691 9.49874 1.2994 9.46281C1.32284 9.39719 1.34471 9.33001 1.37908 9.26908C1.40252 9.22846 1.43689 9.19565 1.46501 9.15816C1.50094 9.10816 1.53375 9.05661 1.57594 9.01286C1.61187 8.97693 1.65874 8.95037 1.69936 8.91912C1.74467 8.88162 1.78529 8.841 1.83684 8.81132H1.83841L16.8524 0.166968C17.2392 -0.0556559 17.7153 -0.0556559 18.1022 0.166968L33.1162 8.81132H33.1193C33.1693 8.84257 33.2115 8.88162 33.2568 8.91756C33.2974 8.9488 33.3427 8.97693 33.3787 9.0113C33.4224 9.05661 33.4536 9.10816 33.4911 9.15816C33.5177 9.19565 33.5536 9.22846 33.5755 9.26908C33.6114 9.33157 33.6318 9.39719 33.6567 9.46281C33.6692 9.49874 33.6911 9.53155 33.7005 9.56905C33.7293 9.67552 33.744 9.78529 33.7442 9.89557V42.0154L46.2553 34.8116V18.3915C46.2553 18.2821 46.271 18.1712 46.2991 18.0665C46.31 18.029 46.3303 17.9962 46.3428 17.9603C46.3678 17.8947 46.3897 17.8275 46.4241 17.7666C46.4475 17.726 46.4819 17.6931 46.5084 17.6557C46.5459 17.6057 46.5772 17.5541 46.6209 17.5104C46.6569 17.4744 46.7022 17.4479 46.7428 17.4166C46.7897 17.3791 46.8303 17.3385 46.8803 17.3088H46.8818L61.8974 8.66446C62.2842 8.44152 62.7604 8.44152 63.1472 8.66446L78.1612 17.3088C78.2143 17.3401 78.2549 17.3791 78.3018 17.4151C78.3409 17.4463 78.3862 17.4744 78.4221 17.5088C78.4658 17.5541 78.4971 17.6057 78.5346 17.6557C78.5627 17.6931 78.5971 17.726 78.6189 17.7666C78.6549 17.8275 78.6752 17.8947 78.7002 17.9603C78.7142 17.9962 78.7346 18.029 78.7439 18.0665ZM76.2848 34.8116V20.5569L71.0307 23.5816L63.7722 27.7608V42.0154L76.2864 34.8116H76.2848ZM61.2709 60.5978V46.3337L54.131 50.4114L33.7427 62.0476V76.446L61.2709 60.5978ZM3.71476 12.0594V60.5978L31.2398 76.4444V62.0492L16.8602 53.911L16.8555 53.9079L16.8492 53.9048C16.8008 53.8766 16.7602 53.836 16.7149 53.8016C16.6758 53.7704 16.6305 53.7454 16.5961 53.711L16.593 53.7063C16.5524 53.6673 16.5243 53.6188 16.4899 53.5751C16.4587 53.5329 16.4212 53.497 16.3962 53.4532L16.3946 53.4486C16.3665 53.4017 16.3493 53.3454 16.329 53.2923C16.3087 53.2455 16.2821 53.2017 16.2696 53.1517V53.1501C16.254 53.0908 16.2509 53.0283 16.2446 52.9674C16.2384 52.9205 16.2259 52.8736 16.2259 52.8267V52.8236V19.2633L8.96887 15.0825L3.71476 12.061V12.0594ZM17.4789 2.69481L4.96931 9.89557L17.4757 17.0963L29.9837 9.89401L17.4757 2.69481H17.4789ZM23.9844 47.6336L31.2414 43.4559V12.0594L25.9873 15.0841L18.7287 19.2633V50.6598L23.9844 47.6336ZM62.5223 11.1923L50.0143 18.3931L62.5223 25.5938L75.0287 18.3915L62.5223 11.1923ZM61.2709 27.7608L54.0123 23.5816L48.7582 20.5569V34.8116L56.0152 38.9892L61.2709 42.0154V27.7608ZM32.4897 59.8838L50.8361 49.4099L60.0069 44.1761L47.5083 36.9801L33.1177 45.2651L20.002 52.8158L32.4897 59.8838Z" fill="#FF2D20"/>
</svg>
