<svg width="80" height="80" viewBox="0 0 80 80" fill="none" xmlns="http://www.w3.org/2000/svg">
<path d="M40 46.1851C43.4518 46.1851 46.25 43.3868 46.25 39.9351C46.25 36.4833 43.4518 33.6851 40 33.6851C36.5482 33.6851 33.75 36.4833 33.75 39.9351C33.75 43.3868 36.5482 46.1851 40 46.1851Z" fill="#00D8FF"/>
<path d="M40 54.2649C32.4878 54.4466 24.9945 53.434 17.8 51.2649C14.4766 50.2114 11.3768 48.5518 8.6575 46.3699C7.61982 45.6246 6.75568 44.6635 6.12436 43.5528C5.49303 42.442 5.10947 41.2079 5 39.9349C5 35.8024 9.54 31.7524 17.145 29.1024C24.5318 26.7543 32.2498 25.6163 40 25.7324C47.6468 25.6256 55.2614 26.7431 62.555 29.0424C65.7557 30.0628 68.7503 31.6422 71.4 33.7074C72.4199 34.418 73.2711 35.3442 73.8932 36.4204C74.5154 37.4966 74.8932 38.6965 75 39.9349C75 44.2299 69.925 48.5824 61.75 51.2874C54.6948 53.3859 47.3596 54.39 40 54.2649ZM40 28.7224C32.5853 28.6233 25.2021 29.7052 18.1275 31.9274C11.1275 34.3699 7.99 37.7099 7.99 39.9274C7.99 42.2474 11.3625 45.8949 18.7675 48.4274C25.6502 50.4921 32.8165 51.4532 40 51.2749C47.041 51.4009 54.0598 50.4481 60.8125 48.4499C68.5 45.9024 72 42.2499 72 39.9349C71.8739 39.1405 71.5844 38.3809 71.1497 37.704C70.7151 37.0271 70.1449 36.4477 69.475 36.0024C67.1044 34.1703 64.4292 32.7705 61.5725 31.8674C54.5951 29.6768 47.3124 28.6151 40 28.7224Z" fill="#00D8FF"/>
<path d="M25.8 71.1076C24.6338 71.1343 23.4813 70.8514 22.46 70.2876C18.88 68.2226 17.64 62.2676 19.1425 54.3551C20.7991 46.7828 23.6695 39.5283 27.6425 32.8726C31.3693 26.1953 36.1405 20.1573 41.775 14.9876C44.2579 12.7243 47.1222 10.9189 50.235 9.65505C51.3609 9.1274 52.5891 8.85388 53.8325 8.85388C55.0759 8.85388 56.3041 9.1274 57.43 9.65505C61.1525 11.8001 62.385 18.3701 60.6475 26.8026C58.9397 33.964 56.1439 40.8211 52.3575 47.1351C48.7618 53.7334 44.1409 59.7188 38.6675 64.8676C36.0945 67.2195 33.1083 69.0749 29.86 70.3401C28.5596 70.8227 27.1869 71.0822 25.8 71.1076ZM30.2325 34.3576C26.4427 40.7309 23.6917 47.6668 22.0825 54.9051C20.7 62.1926 22.0275 66.5751 23.9575 67.6901C25.9575 68.8476 30.8125 67.7501 36.7075 62.6001C41.9326 57.6674 46.3431 51.9381 49.775 45.6251C53.4023 39.5888 56.0842 33.0329 57.7275 26.1851C59.3625 18.2476 57.95 13.3876 55.945 12.2326C55.1935 11.9446 54.3905 11.8157 53.5867 11.854C52.7828 11.8923 51.9957 12.097 51.275 12.4551C48.5042 13.5984 45.9568 15.2216 43.75 17.2501C38.3667 22.202 33.8092 27.9824 30.25 34.3726L30.2325 34.3576Z" fill="#00D8FF"/>
<path d="M54.1921 71.1399C50.8046 71.1399 46.5021 69.0899 42.0221 65.2374C36.2889 60.0206 31.4371 53.9109 27.6546 47.1449C23.7315 40.5808 20.8838 33.4313 19.2196 25.9674C18.4979 22.6837 18.3642 19.2979 18.8246 15.9674C18.9311 14.732 19.3073 13.5349 19.9267 12.4606C20.5461 11.3863 21.3937 10.461 22.4096 9.74995C26.1271 7.59745 32.4346 9.80995 38.8721 15.5249C44.2236 20.5804 48.7681 26.4267 52.3471 32.8599C56.2679 39.2708 59.1454 46.2638 60.8721 53.5774C61.6249 56.9817 61.741 60.4959 61.2146 63.9424C61.0894 65.2135 60.6907 66.4424 60.0461 67.5449C59.4014 68.6474 58.5259 69.5975 57.4796 70.3299C56.475 70.8867 55.3404 71.1663 54.1921 71.1399ZM30.2421 45.6399C33.8707 52.106 38.5053 57.9533 43.9721 62.9624C49.5946 67.7999 54.0546 68.8399 55.9721 67.7124C57.9721 66.5499 59.4471 61.8049 57.9271 54.1274C56.2618 47.1448 53.5018 40.4697 49.7496 34.3499C46.3342 28.1928 41.9965 22.5946 36.8871 17.7499C30.8271 12.3699 25.9121 11.1674 23.9096 12.3274C23.2855 12.8347 22.7733 13.4658 22.4054 14.1809C22.0375 14.8961 21.8219 15.6797 21.7721 16.4824C21.3746 19.4527 21.5041 22.4697 22.1546 25.3949C23.7554 32.5328 26.4865 39.369 30.2446 45.6449L30.2421 45.6399Z" fill="#00D8FF"/>
</svg>
