<svg width="80" height="80" viewBox="0 0 80 80" fill="none" xmlns="http://www.w3.org/2000/svg">
<path d="M0 40V80H80V0H0V40ZM64.4672 36.8C66.3833 37.2447 68.1248 38.2468 69.472 39.68C70.2137 40.4521 70.8584 41.3118 71.392 42.24C71.392 42.3424 67.936 44.6784 65.8304 45.984C65.7536 46.0352 65.4464 45.7024 65.1072 45.1968C64.7228 44.5335 64.1767 43.9785 63.5197 43.5834C62.8628 43.1884 62.1165 42.9662 61.3504 42.9376C58.9248 42.7712 57.3632 44.0448 57.376 46.1376C57.3559 46.6586 57.4752 47.1756 57.7216 47.6352C58.2528 48.7424 59.2448 49.4016 62.3552 50.7456C68.0832 53.2096 70.5344 54.8352 72.0576 57.1456C73.76 59.7056 74.1376 63.84 72.9856 66.8992C71.7056 70.2272 68.5696 72.4864 64.1344 73.2352C62.1087 73.4672 60.062 73.4457 58.0416 73.1712C54.9451 72.6608 52.0927 71.174 49.9008 68.928C49.1648 68.1152 47.7312 65.9968 47.8208 65.8432C48.0544 65.6698 48.3004 65.5136 48.5568 65.376L51.52 63.7376L53.8176 62.4064L54.2976 63.1168C55.1077 64.2756 56.1386 65.263 57.3312 66.0224C59.8912 67.3664 63.3856 67.1808 65.1136 65.6256C65.6938 65.0557 66.0557 64.3004 66.1364 63.4912C66.2171 62.6819 66.0114 61.87 65.5552 61.1968C64.9152 60.3072 63.6352 59.5584 60.0576 57.9968C55.9296 56.2176 54.1504 55.1168 52.5248 53.3632C51.51 52.206 50.7607 50.8407 50.3296 49.3632C50.008 47.6752 49.9605 45.9464 50.1888 44.2432C51.04 40.256 54.0288 37.472 58.3936 36.6464C60.415 36.3963 62.4625 36.4524 64.4672 36.8128V36.8ZM45.6896 40.1536V43.4304H35.3024V73.0176H27.936V43.424H17.5232V40.224C17.4908 39.1205 17.5164 38.016 17.6 36.9152C17.6512 36.8576 24 36.8576 31.68 36.8576H45.6512L45.6896 40.1536Z" fill="#007ACC"/>
</svg>
